<svg xmlns="http://www.w3.org/2000/svg" fill="none" viewBox="0 0 48 48" id="Gaming-Award-Prize--Streamline-Flex.svg" height="48" width="48"><desc>Gaming Award Prize Streamline Icon: https://streamlinehq.com</desc><g id="gaming-award-prize"><path id="Union" fill="#2859c5" fill-rule="evenodd" d="M34.45131428571428 30.223851428571425c1.0148571428571427 -0.9937714285714285 2.6427428571428573 -0.976937142857143 3.636685714285714 0.03757714285714285 0.9935999999999999 1.0145485714285714 0.9767999999999999 2.6426057142857142 -0.03771428571428571 3.636377142857143 -2.0989714285714283 2.055908571428571 -4.220125714285714 3.423908571428571 -6.310834285714285 4.4202514285714285 2.115051428571429 1.0001142857142857 4.315748571428571 2.3516571428571424 6.569348571428572 4.316571428571428 1.0703999999999998 0.9332571428571428 1.1814857142857143 2.5573714285714284 0.24822857142857144 3.6281142857142856 -0.9332571428571428 1.0703999999999998 -2.5577142857142854 1.1814857142857143 -3.6281142857142856 0.24822857142857144 -3.750617142857143 -3.2701714285714285 -7.2360685714285715 -4.458857142857142 -10.930834285714285 -5.535771428571429 -3.6947314285714286 1.0769142857142857 -7.180217142857143 2.2656 -10.930937142857143 5.535771428571429 -1.0704342857142857 0.9332571428571428 -2.694754285714285 0.8221714285714286 -3.628045714285714 -0.24822857142857144 -0.9333257142857143 -1.0707428571428572 -0.8221371428571428 -2.694857142857143 0.24829714285714283 -3.6281142857142856 2.2536685714285714 -1.9649142857142858 4.454262857142857 -3.3164571428571428 6.569314285714285 -4.316571428571428 -2.0907085714285714 -0.9963428571428572 -4.211897142857143 -2.364342857142857 -6.3107999999999995 -4.4202514285714285 -1.0145485714285714 -0.9937714285714285 -1.0313485714285715 -2.6218285714285714 -0.03757714285714285 -3.636377142857143 0.9937714285714285 -1.0145142857142857 2.6218285714285714 -1.0313485714285715 3.636342857142857 -0.03757714285714285 3.2922857142857143 3.224948571428571 6.5520685714285705 4.2734057142857145 10.453405714285713 5.398662857142857 3.901337142857143 -1.1252571428571427 7.1611199999999995 -2.1737142857142855 10.453234285714284 -5.398662857142857Z" clip-rule="evenodd" stroke-width="1"></path><path id="Union_2" fill="#8fbffa" fill-rule="evenodd" d="M14.191885714285714 1.199509714285714c1.2308571428571426 0.7084217142857142 1.6543885714285713 2.2805245714285713 0.9459771428571427 3.511381714285714l-0.9154971428571428 1.5906171428571427c-0.7084457142857142 1.2308571428571426 -2.2805142857142857 1.6543885714285713 -3.511371428571428 0.9459771428571427 -1.2308571428571426 -0.7084457142857142 -1.6543885714285713 -2.2805142857142857 -0.945942857142857 -3.511371428571428l0.9154971428571428 -1.590654857142857C11.388959999999999 0.9146057142857142 12.961062857142856 0.49109142857142857 14.191885714285714 1.199509714285714ZM32.861245714285715 4.710891428571428c-0.7084114285714286 -1.2308571428571426 -0.28487999999999997 -2.8029599999999997 0.9459771428571427 -3.511381714285714 1.23072 -0.7084182857142857 2.803062857142857 -0.284904 3.511405714285714 0.9459497142857142l0.9154285714285715 1.590654857142857c0.7083428571428572 1.2308571428571426 0.2849142857142857 2.8029257142857142 -0.945942857142857 3.511371428571428 -1.2308571428571426 0.7084114285714286 -2.802857142857143 0.28487999999999997 -3.511371428571428 -0.9459771428571427l-0.9154971428571428 -1.5906171428571427Zm10.43544 3.3620914285714285c-1.1766857142857143 -0.7953942857142857 -2.7750857142857144 -0.48641142857142855 -3.5705142857142858 0.6901371428571428l-1.3193142857142857 1.9517142857142857 -2.779885714285714 -0.5918399999999999c-1.38912 -0.2957485714285714 -2.7548914285714283 0.5905371428571429 -3.0506399999999996 1.9795542857142858 -0.2957485714285714 1.3890514285714286 0.5905714285714285 2.754822857142857 1.9795542857142858 3.0505371428571424l4.474971428571428 0.9527657142857143c1.0244571428571427 0.21812571428571426 2.079085714285714 -0.20705142857142855 2.6657142857142855 -1.0748914285714286l2.2902857142857145 -3.387531428571428c0.7950857142857142 -1.1765142857142856 0.4861714285714286 -2.7750857142857144 -0.6901714285714285 -3.570445714285714Zm-7.673142857142857 15.313371428571429c-1.272342857142857 -0.6312342857142856 -1.7917714285714283 -2.1742285714285714 -1.1605714285714286 -3.4464 0.6312 -1.2721714285714285 2.1744 -1.7917714285714283 3.4464 -1.160537142857143l3.008914285714286 1.4929714285714284 2.333142857142857 -1.39608c1.2188571428571426 -0.7291885714285714 2.7977142857142856 -0.3324 3.526971428571428 0.8862514285714285 0.7292571428571428 1.2186857142857142 0.33222857142857143 2.7977142857142856 -0.8862857142857142 3.526902857142857l-3.5382857142857143 2.1172114285714283c-0.7511999999999999 0.4493828571428571 -1.6793142857142858 0.48589714285714286 -2.4634285714285715 0.09685714285714285l-4.266857142857142 -2.117177142857143ZM31.70036571428571 30.74972571428571c-0.9325028571428571 -1.07112 -0.8201828571428571 -2.6953714285714283 0.25093714285714286 -3.6278742857142854 1.07112 -0.9325371428571428 2.69544 -0.8201828571428571 3.6280114285714284 0.25093714285714286l1.7495999999999998 2.009725714285714 4.297714285714286 -0.38585142857142857c1.4142857142857141 -0.1269942857142857 2.664 0.9166971428571428 2.7908571428571425 2.3311885714285716 0.1272 1.4144571428571426 -0.9168000000000001 2.6640685714285715 -2.331085714285714 2.791062857142857l-5.605028571428571 0.5031428571428571c-0.8211428571428571 0.0737142857142857 -1.6278857142857142 -0.2506285714285714 -2.169257142857143 -0.8725714285714286l-2.611748571428571 -2.9997599999999998ZM8.273005714285715 8.763119999999999c-0.7953942857142857 -1.1765485714285715 -2.3939314285714284 -1.4855314285714285 -3.57048 -0.6901371428571428 -1.1765142857142856 0.79536 -1.4855142857142858 2.3939314285714284 -0.6901371428571428 3.570445714285714l2.2900799999999997 3.387531428571428c0.5866971428571428 0.86784 1.6411885714285712 1.2930171428571429 2.665782857142857 1.0748914285714286l4.474937142857143 -0.9527657142857143c1.3890171428571427 -0.29571428571428565 2.275337142857143 -1.661485714285714 1.9795885714285713 -3.0505371428571424 -0.2957485714285714 -1.3890171428571427 -1.6615199999999999 -2.275302857142857 -3.0505371428571424 -1.9795542857142858l-2.7798171428571425 0.5918399999999999 -1.3194171428571428 -1.9517142857142857Zm5.261417142857143 11.176834285714285c0.6312342857142856 1.2721714285714285 0.1116342857142857 2.815165714285714 -1.160537142857143 3.4464l-4.266959999999999 2.117177142857143c-0.78408 0.38904 -1.71216 0.3525257142857143 -2.463257142857143 -0.09685714285714285L2.1053005714285713 23.28946285714286C0.8866388571428572 22.560274285714282 0.48983999999999994 20.981245714285713 1.2190285714285714 19.762559999999997c0.729192 -1.2186514285714285 2.3082514285714284 -1.6154399999999998 3.526902857142857 -0.8862514285714285l2.3332114285714285 1.39608 3.0088799999999996 -1.4929714285714284c1.2721714285714285 -0.6312342857142856 2.815165714285714 -0.1116342857142857 3.4464 1.160537142857143Zm2.7643199999999997 10.80936c0.9325371428571428 -1.07112 0.8201828571428571 -2.6953714285714283 -0.25093714285714286 -3.6278742857142854 -1.07112 -0.9325371428571428 -2.6953714285714283 -0.8201828571428571 -3.6278742857142854 0.25093714285714286l-1.7497028571428568 2.009725714285714 -4.2975771428571425 -0.38585142857142857c-1.4144914285714285 -0.1269942857142857 -2.664102857142857 0.9166971428571428 -2.7910971428571427 2.3311885714285716 -0.1269942857142857 1.4144571428571426 0.9167314285714285 2.6640685714285715 2.3311885714285716 2.791062857142857l5.605028571428571 0.5032114285714285c0.8212114285714286 0.0737142857142857 1.6279542857142857 -0.2506285714285714 2.1693599999999997 -0.8726400000000001l2.6116114285714285 -2.9997599999999998Z" clip-rule="evenodd" stroke-width="1"></path></g></svg>